<svg width="139" height="97" viewBox="0 0 139 97" fill="none" xmlns="http://www.w3.org/2000/svg">
<g clip-path="url(#clip0_416_514)">
<path d="M124.961 131.316L-2.31436 165.419C-10.0418 167.489 -17.5318 163.173 -19.5991 155.458L-41.4878 73.7682C-43.555 66.0531 -39.2267 58.5699 -31.4993 56.4993L-4.22607 49.1915C-3.31696 48.9479 -2.19651 47.6749 -1.86356 47.0992L0.461246 35.7752C1.30663 31.6573 5.12254 27.7164 9.21352 26.6202L45.5778 16.8764C49.6688 15.7802 54.9439 17.2853 57.735 20.4287L65.4103 29.0732C66.1081 29.8591 67.5934 29.9476 68.5025 29.704L95.7757 22.3961C103.503 20.3256 110.993 24.642 113.06 32.3572L134.949 114.047C137.016 121.762 132.688 129.245 124.961 131.316ZM-29.0672 65.576C-31.7945 66.3068 -33.1263 68.6093 -32.3967 71.3323L-10.508 153.022C-9.77838 155.745 -7.47375 157.073 -4.74643 156.342L122.529 122.239C125.256 121.508 126.588 119.206 125.858 116.483L103.969 34.7931C103.24 32.0701 100.935 30.742 98.2077 31.4728L70.9345 38.7806C66.8436 39.8768 61.5684 38.3718 58.7774 35.2283L51.102 26.5838C50.4042 25.7979 48.7974 25.2556 47.8883 25.4992L11.524 35.243C10.6149 35.4866 9.49443 36.7596 9.16148 37.3353L6.83667 48.6593C6.11289 53.231 2.29699 57.172 -1.79399 58.2681L-29.0672 65.576Z" fill="white" fill-opacity="0.15"/>
<path d="M56.4589 130.214C33.7312 136.304 10.6849 123.023 4.60475 100.331C-1.47545 77.6394 11.8425 54.6143 34.5702 48.5244C57.2979 42.4345 80.3442 55.7159 86.4243 78.4075C92.5045 101.099 79.1866 124.124 56.4589 130.214ZM37.0023 57.601C19.2747 62.3511 8.95326 80.1956 13.6958 97.8951C18.4384 115.595 36.2992 125.888 54.0268 121.137C71.7544 116.387 82.0758 98.5429 77.3333 80.8435C72.5907 63.144 54.7299 52.8509 37.0023 57.601Z" fill="white" fill-opacity="0.15"/>
<path d="M83.6737 49.9596C86.1841 49.287 87.6747 46.7098 87.0031 44.2033C86.3315 41.6969 83.752 40.2103 81.2416 40.883C78.7311 41.5557 77.2405 44.1328 77.9121 46.6393C78.5837 49.1457 81.1632 50.6323 83.6737 49.9596Z" fill="white" fill-opacity="0.15"/>
<path d="M-29.3857 46.2048L-11.2036 41.3329L-9.98757 45.8712L-28.1697 50.7431L-29.3857 46.2048ZM40.6505 71.216L39.4345 66.6777C26.707 70.088 19.3821 82.7518 22.787 95.4591L27.3326 94.2412C24.6573 84.2569 30.6504 73.8955 40.6505 71.216Z" fill="white" fill-opacity="0.15"/>
</g>
<defs>
<clipPath id="clip0_416_514">
<rect width="160" height="131.556" fill="white" transform="translate(-50 42) rotate(-15)"/>
</clipPath>
</defs>
</svg>
